<svg xmlns="http://www.w3.org/2000/svg" width="180" height="180" viewBox="0 0 180 180">
  <defs>
    <style>
      .cls-1 {
        fill: #9be425;
      }

      .cls-1, .cls-2 {
        fill-rule: evenodd;
      }

      .cls-2 {
        fill: #00249c;
      }
    </style>
  </defs>
  <path id="Shape_316_1" data-name="Shape 316 1" class="cls-1" d="M90.482-1.483h0.55v0.276C90.48-1.365,90.795-1.174,90.482-1.483Zm-37.972,20.4V19.47H51.96v0.551H51.41c-0.941,2.1-3.392,3.4-4.678,5.238v0.551l-0.55.276v0.551l-0.825.551V27.74l-0.825.551v0.551l-0.55.276-0.275,1.1-0.55.276L42.88,31.6l-0.55.276-0.275,1.1-0.55.276v0.827l-0.55.276-0.275,1.1H40.4l-0.275,1.1H39.854V37.39l-0.55.276v0.827H39.028v0.551H38.753L38.478,40.7l-0.55.276V41.8H37.652v0.827H37.377v0.827H37.1v0.827H36.827v1.1H36.552l-0.275,1.93H36v0.827H35.726l-0.275,2.481H35.176v1.93a33.356,33.356,0,0,0-1.1,8.822q0.138,5.1.275,10.2h0.275v1.93H34.9v1.1h0.275v2.206h0.275V77.64h0.275v1.378H36v1.1h0.275v1.1h0.275l0.275,1.93H37.1v0.827h0.275v0.827h0.275v0.827h0.275v0.827H38.2V87.29h0.275v0.551h0.275v0.827h0.275v0.551H39.3v0.551h0.275v0.551h0.275v0.827h0.275l0.55,1.654h0.275v0.551h0.275v0.551H41.5v0.551H41.78v0.551h0.275V95.56l0.55,0.276v0.551H42.88v0.551h0.275l0.275,1.1,0.55,0.276v0.551l0.55,0.276V99.7h0.275l0.275,0.827,0.55,0.275v0.552l0.825,0.551v0.552l0.55,0.275v0.552l0.55,0.275,0.55,0.827h0.275v0.552l0.825,0.551,0.275,0.827h0.55v0.552l4.678,4.411,0.825,1.1h0.55l0.826,1.1h0.55l0.825,1.1h0.55l1.1,1.378h0.55l0.275,0.552h0.55l0.275,0.551h0.55l0.275,0.552h0.55l0.275,0.551h0.55v0.276h0.55l0.275,0.551,1.651,0.551,0.275,0.552h0.826l0.275,0.551,1.1,0.276,0.275,0.551h0.826l0.275,0.552h0.826l0.275,0.551,1.1,0.276v0.275l1.1,0.276v0.276h1.1v0.275h0.55v0.276H75.9v0.276l1.376,0.275v0.276h0.55v0.276l0.825-.276v0.276h0.826v0.276H80.3v0.275h1.1v0.276c1.179,0.448,3.37.62,4.127,1.378l-6.329-.551v-0.276l-2.476-.275v-0.276H75.074v-0.276l-2.476-.275v-0.276H71.772v-0.276H70.946v-0.276H70.121v-0.275H68.745v-0.276l-1.1-.276v-0.275H66.819v-0.276H65.993v-0.276H65.168v-0.275H64.342l-0.275-.552-1.651-.275-0.275-.552H61.316l-0.275-.551H60.215v-0.276l-1.1-.276V120.1l-1.1-.276-0.275-.551H56.913l-0.55-.827-1.1-.276-0.275-.551h-0.55V117.34h-0.55v-0.276H53.061l-0.55-.827-1.1-.276-0.825-1.1h-0.55l-0.826-1.1h-0.55l-0.825-1.1h-0.55l-1.1-1.378h-0.55V111l-0.55-.276v-0.551h-0.55V109.62l-1.376-.827-0.275-.827H42.33v-0.275l-0.55-.276v-0.551H41.5l-0.55-.828H40.4a1.505,1.505,0,0,1-.275-1.1h-0.55v-0.276l-0.55-.276v-0.551l-1.1-.827-0.275-1.1-1.1-.827-0.275-.827-0.55-.276V99.42l-0.55-.276-0.55-1.654-0.55-.276L33.8,96.387H33.525V95.56l-0.55-.276V94.733l-0.55-.276V93.906H32.149V93.355H31.874V92.528H31.6V91.976l-0.55-.276-0.275-1.378H30.5V89.771H30.223l-0.55-1.654H29.4v-1.1l-0.55-.276v-1.1H28.572l-0.275-1.1H28.022v-1.1H27.747V82.6H27.471L27.2,80.673H26.921V79.295H26.646V78.467H26.371V77.089H26.1v-1.1H25.821V74.608H25.545V71.575H25.27L25,65.786H24.72V61.375H25V58.342H25.27V55.861h0.275V54.207h0.275V52H26.1V51.174h0.275V49.52h0.275V48.969h0.275V47.314H27.2V46.763h0.275V45.385l0.55-.276,0.275-1.93h0.275V42.352h0.275V41.525h0.275V40.7l0.55-.276V39.871h0.275l0.275-1.654H30.5l0.275-1.1h0.275V36.563h0.275V35.735l0.55-.276V34.633h0.275V34.081h0.275V33.53l0.55-.276,0.275-1.1,0.826-.551,0.55-1.654,0.55-.276V29.119L36,28.567l0.275-1.1,0.55-.276V26.638l0.55-.276,0.275-.827h0.275l0.275-.827h0.55c0.24-.945.569-0.71,0.825-1.654h0.55c0.277-1.064.806-.866,1.1-1.93a1.1,1.1,0,0,0,1.1-1.1h0.55V19.47h0.55a1.1,1.1,0,0,1,1.1-1.1V17.816l0.825-.276,0.825-1.1h0.55l1.651-1.93h0.55l0.275-.551h0.275l0.55-.827h0.55l0.55-.827h0.55l0.275-.551,1.1-.276,0.55-.827,1.1-.276,0.275-.551,1.1-.276,0.275-.551,1.1-.276,0.275-.551,1.1-.276V7.615l1.651-.551V6.788h0.825V6.512h0.55l0.275-.551,1.1-.276V5.409h0.826l0.275-.551,1.651-.276V4.307h0.55V4.031h0.826V3.755h1.1L68.745,3.2,70.4,2.928V2.653h0.826V2.377L73.147,2.1V1.825h1.376V1.55h0.55V1.274L77.275,1V0.723L86.63-.931l3.852-.276v0.276L87.456-.1V0.171L83.879,1V1.274H83.053V1.55H82.5V1.825H81.677V2.1H80.852V2.377H80.026V2.653H79.2V2.928L77.825,3.2V3.48h-0.55V3.755H76.449V4.031l-1.1.276V4.582H74.523l-0.275.551H73.423V5.409H72.6V5.685h-0.55V5.961H71.5l-0.275.551-1.651.276L69.3,7.339h-0.55l-0.275.551-1.651.551-0.275.551H65.718l-0.275.551-1.651.551-0.275.551-0.826.276-0.55.827-1.1.276-0.55.827H59.94l-0.275.551h-0.55l-0.55.827h-0.55l-0.825,1.1h-0.55l-0.825,1.1h-0.55l-0.275.551A7.2,7.2,0,0,1,52.511,18.918Zm12.932,5.79v0.551h-0.55c-0.633,1.242-2.153,3.493-3.577,3.86-0.072,2.067-1.389,2.6-2.2,3.86V33.53H58.839v0.551l-0.55.276-0.55,1.654-0.55.276-0.55,1.654H56.363v0.551H56.088l-0.55,1.654H55.262v0.827H54.987v0.551H54.712v0.827H54.437l-0.275,1.1H53.887v0.827H53.611v0.827H53.336v0.827H53.061v0.827H52.786v1.1H52.511v0.827H52.236v1.378H51.96V50.9H51.685v1.378H51.41v1.378H51.135v1.378H50.86v2.206H50.585v2.481H50.309V63.3c0,2.763-.4,6.547.275,8.822l0.55,5.79H51.41v0.827h0.275v1.379H51.96L52.236,82.6h0.275V83.43h0.275v0.827h0.275v1.1h0.275v0.551h0.275l0.275,1.654h0.275v0.551h0.275l0.275,1.654h0.275v0.551h0.275v0.827h0.275l0.275,1.1h0.275V92.8h0.275l0.275,1.379,0.55,0.276v0.827h0.275v0.551h0.275v0.551l0.55,0.276v0.551l0.55,0.276v0.551l0.55,0.276v0.551l0.55,0.276V99.7l0.55,0.276v0.552h0.275l0.275,0.827H60.765l-2.476-2.757-0.55-.276V97.766l-1.1-.827-0.275-1.1-0.826-.551V94.733l-0.55-.276-0.275-.827H54.437l-0.275-1.1-0.825-.551-0.55-1.654-0.55-.276-0.275-.827H51.685V88.392l-0.55-.276-0.275-1.1-0.55-.276V85.911H50.034l-0.275-1.1H49.484V83.981l-0.55-.276V82.879H48.659V82.327H48.383l-0.275-1.378H47.833l-0.275-1.654H47.283V78.743l-0.55-.276V77.64H46.457V77.089H46.182v-1.1H45.907V75.159H45.632V73.781H45.357V72.954H45.082l-0.275-2.481H44.531l-0.275-3.86H43.981l-0.275-7.719h0.275V53.931h0.275L44.531,50.9l0.55-.276v-1.93h0.275l0.275-2.481h0.275V45.385h0.275v-1.1h0.275l0.275-1.654h0.275V42.076h0.275v-1.1l0.55-.276,0.55-2.757,0.55-.276V36.838h0.275V36.287h0.275V35.735l0.55-.276V34.633h0.275V34.081h0.275V33.53l0.55-.276V32.427l0.55-.276V31.324l0.825-.551,0.275-1.1,0.55-.276V28.843l0.55-.276V28.016l0.825-.551V26.913l0.825-.551V25.535l1.376-1.1V23.881h0.275a4.969,4.969,0,0,0,1.376-1.93h0.55c0.655-1.364,1.745-2.042,2.752-3.033l0.55-.827h0.55l2.477-2.757h0.55l0.825-1.1h0.55l0.275-.551h0.55l0.275-.551,1.1-.276,0.275-.551,0.825-.276,0.55-.827h0.55l0.275-.551,1.1-.276,0.275-.551h0.825l0.275-.551,1.651-.551,0.275-.551H77V7.891h0.55V7.615h0.825V7.339H79.2V7.064h0.825V6.788h0.55l0.275-.551H81.4V5.961l1.651-.276V5.409h0.826V5.134h0.55V4.858H85.8V4.582H86.63V4.307h1.1V4.031h0.55V3.755h1.926V3.48h0.825V3.2h2.2V2.928h3.577V2.653c1.322-.372,6.743,0,7.7.276h3.577V3.2h1.926V3.48h0.826V3.755h0.825V4.031H113.6V4.307h1.1V4.582h0.826V4.858l2.2,0.276V5.409H119.1l0.55,0.827,3.577,0.827V7.339h0.55V7.615l1.376,0.276q0.138,0.276.275,0.551l1.651,0.276V8.993h0.55V9.269h0.551q0.137,0.276.275,0.551l2.476,0.827,0.276,0.551h0.55v0.276h0.55V11.75h0.55v0.276h0.551q0.136,0.276.275,0.551h0.55q0.138,0.276.275,0.551h0.551q0.137,0.276.275,0.551h0.55q0.138,0.276.275,0.551h0.551q0.137,0.276.275,0.551h0.55q0.138,0.276.275,0.551h0.551q0.136,0.276.275,0.551h0.55q0.138,0.276.275,0.551l1.1,0.276,0.275,0.551,0.825,0.276v0.276h-0.55c-0.626-.7-1.029-0.424-1.926-0.827V16.713l-1.1-.276V16.161l-2.476-.827V15.059h-0.825V14.783l-1.1-.276V14.232h-0.826V13.956h-0.55V13.68h-0.55q-0.138-.276-0.275-0.551h-0.826l-0.275-.551h-1.1V12.3h-0.825V12.026h-1.1q-0.136-.276-0.275-0.551h-1.1V11.2h-0.551V10.923h-1.376V10.648h-1.1V10.372H121.3V10.1h-0.826V9.82h-1.1V9.545h-1.926V9.269h-2.2V8.993h-2.2V8.718h-3.3V8.442h-4.4V8.718H99.563V8.993l-3.3.276V9.545h-1.1V9.82H93.234V10.1h-0.55v0.276H91.033v0.276l-1.926.276V11.2H88.281v0.276l-2.752.551V12.3h-0.55v0.276H84.154l-0.275.551h-1.1L82.5,13.68H81.4l-0.275.551h-1.1v0.276h-0.55v0.276h-0.55l-0.275.551-1.1.276-0.275.551-1.651.551v0.276l-0.826.276-0.275.551-1.1.276-0.275.551H72.6l-1.1,1.378h-0.55l-0.275.551h-0.55l-0.825,1.1h-0.55l-0.275.551C67.747,22.911,66.4,24.438,65.443,24.708Zm73.742,0v0.551a7.879,7.879,0,0,1,2.2.551v0.551c1.128,0.218,5.241,3.188,5.5,4.135a2.555,2.555,0,0,1,1.376.551q0.138,0.413.275,0.827c0.638,0.543.522-.3,0.826,0.827h0.55a1.1,1.1,0,0,0,1.1,1.1v0.551a6.638,6.638,0,0,1,.55.827l0.826,0.276v0.551l1.375,1.1v0.551l0.551,0.276v0.551l0.55,0.276v0.551l0.825,0.551,1.1,3.033,0.826,0.276q0.136,0.414.275,0.827h0.275v0.551h0.275v1.1L159,45.936v0.551h0.275l0.276,1.1h0.275q0.138,0.827.275,1.654l0.55,0.276v1.1h0.275l0.276,1.93h0.275V53.38h0.275v0.827h0.275v0.827H162.3q0.138,1.516.275,3.033a13.519,13.519,0,0,1,.826,4.411,29.148,29.148,0,0,1,0,5.238c-0.176,1.037.262,2.4-.275,3.033a22.268,22.268,0,0,0-1.1-5.238q0.138-.827.275-1.654h-0.275q-0.138-.551-0.275-1.1h-0.275v-1.1H161.2v-1.1h-0.276V60h-0.275V59.169h-0.275q-0.138-.827-0.275-1.654h-0.275V56.964h-0.275V56.137L159,55.861q-0.137-.827-0.275-1.654l-0.55-.276V53.38H157.9q-0.138-.551-0.275-1.1h-0.276q-0.137-.827-0.275-1.654l-0.825-.551q-0.276-.827-0.551-1.654h-0.275q-0.137-.414-0.275-0.827l-0.55-.276q-0.138-.551-0.275-1.1l-0.551-.276V45.385l-1.1-.827q-0.138-.551-0.275-1.1l-1.1-.827c-0.525-.846.494-0.712-0.826-1.1V40.974c-0.853-.491-0.774-1.193-1.375-1.654H148.54q-0.136-.276-0.275-0.551H147.99V38.217h-0.55V37.665a12.942,12.942,0,0,1-1.651-1.1q-0.276-.414-0.55-0.827l-0.826-.276-1.1-1.378h-0.55l-0.275-.551-1.1-.276-0.55-.827h-0.55q-0.138-.276-0.275-0.551H139.46q-0.137-.276-0.275-0.551h-0.55V31.049h-0.551V30.773h-0.55V30.5h-0.55l-0.551-.827h-1.1V29.395h-0.55V29.119l-1.651-.551V28.292h-0.551V28.016h-0.825V27.74h-0.55V27.465l-5.779-1.378q-0.137-.276-0.275-0.551h-2.2V25.259h-2.477V24.984h-1.1V24.708H112.5c-4.013,0-7.817.307-10.731,1.378h-1.376v0.276H98.737v0.276h-0.55v0.276h-1.1v0.276H96.261v0.276h-1.1V27.74l-1.651.551v0.276H92.133v0.276h-0.55v0.276h-0.55l-0.275.551H89.932v0.276l-1.1.276V30.5l-1.1.276-0.275.551-1.1.276-0.275.551-1.1.276-0.275.551-1.651.551-0.275.551h-0.55l-1.1,1.378h-0.55L79.2,37.114h-0.55c-0.707.565,0.031,0.972-1.376,1.379a7.065,7.065,0,0,1-1.926,2.481l-0.55.276V41.8H74.523l-0.275.551H73.7l-0.275.827H73.147V43.73l-0.55.276-0.275,1.1-0.55.276a3.432,3.432,0,0,0-.825,1.93H70.4l-0.55,1.654H69.57V49.52l-0.55.276-0.275,1.1-0.55.276v1.1l-0.55.276-0.275,1.378-0.55.276v0.551H66.544v1.1l-0.55.276v1.1l-0.55.276-0.275,1.654H64.893V60H64.618v0.551H64.342v0.827H64.067L63.792,63.3H63.517v0.827H63.242v1.1H62.967c-0.355,1.134.131,2.3-.55,3.033V66.061h0.275l-0.275-3.308h0.275V61.1h0.275v-1.93h0.275V57.791h0.275l0.275-2.481h0.275v-1.1h0.275V53.38h0.275V52.553h0.275V51.725h0.275V50.9h0.275V50.071h0.275V49.244l0.55-.276V48.417h0.275l0.275-1.93h0.275V45.936l0.55-.276,0.275-1.379,0.55-.276,0.275-1.1,0.55-.276,0.55-1.654L70.4,40.7V40.146l0.826-.551,0.275-1.1h0.275a2.328,2.328,0,0,0,.55-1.1h0.55a4.059,4.059,0,0,1,1.1-1.93h0.275V34.908L77,32.427l2.477-2.757h0.55l1.926-2.206,1.651-.551,0.826-1.1h0.825l0.275-.551h0.826l0.55-.827,0.826-.276V23.881h1.1l0.55-.827h0.826V22.778h0.55l0.275-.551,1.651-.276,0.275-.551h0.55V21.124h0.55V20.848h1.1V20.572h0.55V20.3h1.1V20.021h0.825V19.745l1.926-.276V19.194h1.376V18.918h0.826V18.643h1.651V18.367l4.953-.276V17.816c1.42-.4,7.742-0.024,8.805.276h2.751l7.7,1.654v0.276h0.551V20.3l2.751,0.551v0.276h0.551V21.4h0.825v0.276l1.376,0.276v0.276h0.55V22.5h0.826v0.276h0.55v0.276h0.55q0.138,0.276.275,0.551h0.551A7.343,7.343,0,0,0,139.185,24.708Zm2.476-6.892h0.551v0.276C141.659,17.933,141.974,18.124,141.661,17.816Z"/>
  <path id="Shape_318_1" data-name="Shape 318 1" class="cls-2" d="M31.29,105.3h0.542l0.271,0.815h0.271v0.544l0.542,0.271v0.544h0.271l0.271,0.815L34,108.565v0.543l1.356,1.087v0.544l0.542,0.272v0.543a7.249,7.249,0,0,1,.813.544,1.081,1.081,0,0,0-.542.543h0.271a1.48,1.48,0,0,1,.542-0.543v0.271l2.441,2.174,0.271,0.816h0.542V115.9a13.492,13.492,0,0,1,2.983,2.446l0.542,0.815,0.814,0.272,1.085,1.358h0.542l0.814,1.087h0.542l0.271,0.544H48.1l0.271,0.543h0.542l0.542,0.816H50l0.271,0.543,0.814,0.272v0.272h0.542l0.271,0.543h0.542l0.271,0.544h0.542l0.271,0.543H54.07l0.271,0.544,1.627,0.543,0.271,0.544h0.542V128.4h0.542v0.272h0.542v0.272h0.542l0.271,0.543h0.814l0.271,0.544h0.814l0.271,0.543h0.814v0.272h0.542v0.272l1.085,0.271v0.272H64.1v0.272h0.542v0.272l1.627,0.271v0.272h0.814v0.272H67.9v0.272h0.814v0.271H69.8v0.272h0.542v0.272l2.17,0.272v0.271h1.356v0.272h0.814V135.2h1.9v0.272h0.814v0.271h1.9v0.272h2.17v0.272h6.78c4.616,0,8.991-.024,12.475-1.087h1.627v-0.272h1.085v-0.272h1.627v-0.271l1.9-.272v-0.272h0.813v-0.272h1.085v-0.271h1.356v-0.272h0.542V132.75l2.441-.543v-0.272h0.543v-0.272l2.44-.543v-0.272l1.356-.272v-0.271h0.543v-0.272l2.44-.544,0.272-.543h0.542v-0.272l1.085-.272v-0.271l2.44-.816v-0.271h0.543v-0.272h0.542V126.5h0.543v-0.272h0.542v-0.271h0.542v-0.272l1.085-.272q0.137-.271.271-0.543h0.543V124.6H130v-0.272h0.543v-0.272h0.542v-0.271h0.542l0.272-.544,1.084-.272q0.137-.271.271-0.543H133.8v-0.272a2.4,2.4,0,0,1,1.356-.272v0.272h-0.271v0.272l-0.814.272v0.543l-2.169,1.9c-0.091.182-.181,0.363-0.272,0.544l-0.813.272-1.9,2.174h-0.542l-0.814,1.087h-0.542q-0.271.407-.542,0.815h-0.543l-0.813,1.087H124.58q-0.135.271-.271,0.543h-0.542c-0.091.181-.181,0.363-0.271,0.544h-0.543l-0.271.543H122.14c-0.091.181-.181,0.363-0.272,0.544l-1.627.543v0.272l-0.813.272-0.272.543h-0.813c-0.091.181-.181,0.363-0.271,0.544l-1.085.271v0.272l-1.085.272v0.272h-0.813l-0.272.543H114v0.272h-0.543v0.272l-1.084.271v0.272l-1.356.272v0.272h-0.543V139h-1.085v0.272h-0.542v0.272l-2.712.543v0.272H105.6v0.272h-1.085V140.9h-1.085v0.271h-1.356v0.272h-1.085v0.272H99.359v0.272H98.546v0.271l-4.068.272c-3.207.927-7.459,0.814-11.661,0.815a25.423,25.423,0,0,1-5.7-.271H74.681v-0.272l-3.8-.272v-0.272l-3.254-.543v-0.272l-2.17-.272V140.9H64.375v-0.272H63.562v-0.272H62.748v-0.272H61.663v-0.271H61.121v-0.272H60.308v-0.272H59.494V139H58.952l-0.814-1.087-2.983-.271-0.271-.544-1.085-.272v-0.271l-1.627-.544v-0.272l-2.441-.815-0.271-.543H48.917l-0.271-.544H48.1l-0.271-.543-1.085-.272-0.271-.544H45.934v-0.271H45.392l-0.542-.816-1.085-.271-0.271-.544H42.951l-0.271-.543H42.138l-0.542-.815H41.053l-0.271-.544H40.239l-0.271-.543-0.814-.272-0.542-.815H38.07l-0.542-.816H37.256l-0.271-.543H36.443l-1.627-1.9H34.273l-2.983-3.261-1.356-1.087,0.271-.816H29.934c-0.309.31,0,.109-0.542,0.272v-0.543l-1.627-1.359v-0.543l-0.542-.272a7.022,7.022,0,0,1-1.627-2.718H25.052l-0.271-.815H24.51l-0.271-.815-0.542-.272v-0.543l-0.542-.272-0.271-1.087-0.542-.272v-0.543l-0.542-.272V107.75l-0.814-.544v-0.543H20.713v-0.544H20.442V105.3l-0.542-.272q-0.136-.543-0.271-1.087l-0.542-.271V103.13H18.815v-0.543H18.544v-0.816H18.273L18,100.684H17.73v-0.543H17.459l-0.271-1.359H16.917V97.967H16.645V97.423H16.374V96.608H16.1V96.065H15.832l-0.271-1.63H15.289c-0.463-1.142.295-1.571-.542-1.9a20,20,0,0,0-1.085-3.8l-0.271-2.446H13.12V84.923H12.849V83.565H12.577V81.391H12.306V79.217H12.035V75.14H11.764q0.135-4.619.271-9.239h0.271V63.184h0.271v-1.63h0.271v-1.9H13.12V58.292h0.271V57.205h0.271l0.271-2.446H14.2V53.944h0.271V53.129l0.542-.272V52.586H14.747l0.271-1.63h0.271l0.271-1.63h0.271V48.781H16.1V47.694h0.271V47.151h0.271V46.336h0.271V45.792h0.271V44.977h0.271V44.433H17.73L18,43.075h0.271l0.542-1.63h0.271V40.9h0.271V40.357h0.271V39.814H19.9V39.27h0.271V38.727h0.271V38.183h0.271V37.64l0.542-.272V36.824l0.542-.272,0.542-1.631,0.814-.543,0.271-1.087H23.7l0.271-.815L24.51,32.2V31.661l0.814-.544V30.574l0.814-.544,0.271-.815h0.542a7,7,0,0,1,2.169-3.261l0.542-.272V25.139h0.271l0.271-.543h0.542c0.275-1.076,3.321-3.877,4.339-4.348v0.543c-1.045.665-1.475,1.958-2.17,2.989l-0.542.272V24.6l-0.542.272-0.271,1.087-0.542.272-0.271,1.087H30.476l-0.271.815-0.542.272v0.543l-0.542.272v0.544H28.849V30.3H28.578v0.544H28.307V31.39l-0.542.272L27.493,33.02l-0.542.272L26.68,34.379H26.408v0.543H26.137l-0.542,1.631H25.324v0.815H25.052l-0.271,1.087H24.51V39H24.239l-0.271,1.359H23.7v0.815H23.425v0.544H23.154v0.815H22.883v0.544H22.612l-0.271,1.63H22.069V45.52l-0.542.272-0.271,2.446H20.984v1.087H20.713V50.14H20.442l-0.271,2.446H19.9v1.359H19.629l-0.271,3.533a37.909,37.909,0,0,0-.271,13.044H18.815v0.272h0.271v1.9h0.271v2.174c0.379,1.284.671,3.113,1.085,4.348l0.271,2.174h0.271l0.542,2.718H21.8v0.815h0.271v0.815H22.34l0.271,1.63h0.271v0.544h0.271l0.271,1.63H23.7v0.543h0.271V90.9h0.271v0.543H24.51V92.26h0.271l0.271,1.087h0.271v0.815l0.542,0.272v0.543h0.271v0.543h0.271v0.815l0.542,0.272,1.9,4.348,0.542,0.272,0.542,1.63,0.814,0.544v0.543h0.271ZM152.784,24.868h0.543v0.272l1.356,1.087,0.271,0.815H155.5v0.544l1.9,1.63v0.544h0.271a0.976,0.976,0,0,0,.813.543q-0.135.408-.271,0.815l0.543-.272v0.272l0.542,0.272v0.543l1.356,1.087v0.543l0.814,0.544v0.544l0.813,0.543v0.544l1.085,0.815q0.135,0.679.271,1.359h0.543q0.135,0.408.271,0.815h0.271c0.09,0.272.181,0.544,0.271,0.815l0.543,0.272q0.135,0.543.271,1.087l0.542,0.272q0.135,0.543.271,1.087l0.543,0.272q0.135,0.543.271,1.087l0.542,0.272v0.544h0.271v0.543h0.272V45.52h0.271v0.543l0.542,0.272v0.543H169.6v0.543h0.272v0.543h0.271v0.544h0.271v0.544h0.271V49.6h0.271V50.14h0.272q0.27,0.815.542,1.631h0.271q0.137,0.679.271,1.359h0.272v0.544h0.271v0.815h0.271v0.544H173.4v0.815h0.271v0.815h0.272v0.543h0.271q0.135,0.815.271,1.631h0.271v0.543h0.271l1.356,5.163h0.271V65.9h0.272v0.815h0.271V67.8c0.645,1.92,1.041,4.51,1.627,6.522V76.5h0.271q0.137,2.174.271,4.348h0.272q0.135,3.8.271,7.609V90.63c-0.068.378-.288-0.112-0.271,0.272H179.9a5.8,5.8,0,0,1-.271,2.446V97.7h-0.272v2.446H179.09v2.174h-0.271v1.63h-0.271V105.3h-0.271v1.63h-0.272v1.087h-0.271v1.359h-0.271v1.359h-0.271v1.087h-0.271v0.815h-0.272V114h-0.271v0.815h-0.271v0.815h-0.271v0.816h-0.271v0.815h-0.272v0.815h-0.271v0.815h-0.271q-0.272,1.222-.542,2.446h-0.271v0.543h-0.272V122.7H173.4q-0.135.543-.271,1.087h-0.271V124.6h-0.271v0.543H172.31v0.816h-0.271q-0.271.815-.542,1.63h-0.271v0.544h-0.272v0.815l-0.542.272v0.543h-0.271v0.815l-0.543.272v0.543h-0.271v0.544h-0.271v0.543h-0.271v0.544h-0.271v0.543l-0.543.272-0.542,1.631-0.543.271q-0.135.544-.271,1.087h-0.271c-0.09.272-.181,0.544-0.271,0.816l-0.542.271q-0.137.544-.272,1.087l-0.813.544v0.543l-0.543.272V140.9l-0.542.271v0.544l-0.814.543v0.544l-1.084.815v0.543l-0.543.272v0.544l-0.813.543v0.544l-0.814.543c-0.09.272-.181,0.544-0.271,0.815l-1.627,1.359v0.544q-1.493,1.358-2.983,2.717c-0.637.7-.158,1.034-1.356,1.359v0.543l-0.814.272-1.085,1.359h-0.542a2.227,2.227,0,0,1-1.627,1.63v0.272a2.047,2.047,0,0,1-1.085-.272c0.782,1.362-.318,1.345-1.085,1.9l-0.813,1.087h-0.543l-0.813,1.087h-0.543l-0.542.816h-0.543q-0.135.272-.271,0.543h-0.542l-0.543.815h-0.542l-0.271.544H140.31l-0.272.543H139.5a5.221,5.221,0,0,1-1.9,1.087v0.544l-0.814.272v0.271H135.97q-0.27.408-.542,0.816h-0.542v0.271h-0.543v0.272H133.53l-0.543.815-1.084.272v0.272H131.36v0.271h-0.542v0.272h-0.543v0.272h-0.542v0.272h-0.814q-0.135.272-.271,0.543h-0.542v0.272h-0.543v0.272h-0.542v0.271l-1.356.272v0.272l-1.356.272v0.271h-0.542v0.272c-0.348.162,0.064-.234-0.271-0.272h-0.272v0.544a7.133,7.133,0,0,0-2.712.815V174.6H119.7v0.272h-0.814v0.271h-0.813v0.272l-2.712.544v0.271h-0.814V176.5h-0.813v0.272l-2.17.272v0.271l-2.17.272v0.272l-12.474,1.9h-5.7V179.49H90.952v0.272H90.41v0.272l-6.78-.272a33.552,33.552,0,0,1-8.407-1.087H73.6V178.4H71.969v-0.271H70.613V177.86H69.528v-0.272L66,177.045v-0.272l-1.9-.272v-0.272H63.291v-0.271H62.477v-0.272l-1.9-.272v-0.272H60.036v-0.271H58.952V174.6l-1.356-.272v-0.272H57.053v-0.271l-1.627-.272V173.24H54.884v-0.272H54.07V172.7l-1.627-.544v-0.272H51.9V171.61H51.087v-0.272H50.545v-0.272H50v-0.272H49.46v-0.271H48.917v-0.272H48.375v-0.272H47.833v-0.272H47.29v-0.271H46.748v-0.272H46.205l-0.271-.544H45.392v-0.271H44.849v-0.272H44.307v-0.272H43.765l-0.271-.543H42.951V166.99H42.409v-0.272l-0.814-.271-0.271-.544-1.085-.272-0.542-.815H39.154l-0.271-.543L37.8,164l-0.271-.544H36.985l-0.542-.815H35.9l-0.542-.815H34.815l-0.542-.815H33.731l-0.814-1.087H32.375l-0.814-1.087H31.29v-0.544l-0.542.272c-0.61-.556-0.649-1.1-1.627-1.359v-0.543a1.089,1.089,0,0,1-1.085-1.087,1.936,1.936,0,0,1-1.627-1.9H26.68v0.271l1.085,0.272,0.271,0.544h0.542l0.271,0.543h0.542v0.272h0.542l0.271,0.543h0.542v0.272H31.29v0.272h0.542v0.271h0.542v0.272l0.813,0.272,0.271,0.543,1.356,0.272,0.271,0.544,1.085,0.271v0.272l1.085,0.272v0.272H38.07V160.2h0.542v0.272h0.542v0.272H39.7v0.272l1.627,0.543v0.272l4.881,1.63L46.477,164,50,164.816v0.272h0.814v0.272h0.814v0.271h0.814V165.9h0.813v0.272l1.9,0.272v0.271l3.254,0.544v0.272l3.526,0.543,0.271,0.543a2.558,2.558,0,0,1,1.356-.271v0.271h1.627v0.272l2.983,0.272v0.272h2.712v0.271h2.983c1.148,0.323,4.128-.123,5.153.272l0.271,0.544h0.271v-0.272H82l7.594-.272v-0.272h2.712v-0.271h2.441v-0.272h1.9v-0.272h1.627V168.62H99.9v-0.271a5.376,5.376,0,0,1,2.712,0c0.09-.181.18-0.363,0.271-0.544l3.254-.543V166.99h0.814v-0.272h0.813v-0.271l2.17-.272V165.9h0.542v-0.272l1.9-.271a6.058,6.058,0,0,1,2.44-.816,1.082,1.082,0,0,0,.543.544l-0.543-.815,4.339-1.631V162.37H119.7V162.1h0.813v-0.272l1.628-.544v-0.271h0.542V160.74h0.542v-0.272h0.543V160.2h0.813q0.137-.272.271-0.543l1.628-.544q0.135-.272.271-0.543l1.085-.272q0.135-.272.271-0.543l0.813-.272v-0.272l1.628-.543c0.09-.181.18-0.363,0.271-0.544h0.542q0.136-.272.271-0.543h0.543l0.271-.544,1.085-.271,0.813-1.087h0.543q0.27-.408.542-0.816h0.542l0.543-.815h0.542l1.085-1.359a6.671,6.671,0,0,0,1.627-1.087l0.814,0.272V149.6c-0.309-.309-0.108,0-0.271-0.543l1.627-1.359v-0.272h0.542q0.949-1.086,1.9-2.174l1.628-1.358q0.27-.408.542-0.815h0.542q-0.135-.273-0.271-0.544l2.441-2.174v-0.543l0.542-.272,0.543-.815h0.271v-0.544c0.491-.69,1.058-0.461,1.356-1.63h0.542a3.4,3.4,0,0,1,.814-1.631H153.6v-0.543l0.814-.544v-0.543c0.681-1.011,1.808-1.913,2.169-3.261h0.543a1.8,1.8,0,0,1,.271-1.087h0.271V128.4h0.271v-0.543l0.542-.272v-0.543h0.272V126.5l0.542-.272q0.271-.814.542-1.63l0.543-.272v-0.543h0.271v-0.544h0.271V122.7h0.271v-0.544h0.272v-0.543l0.542-.272q0.135-.68.271-1.359h0.271v-0.543h0.272v-0.544h0.271v-0.543h0.271q0.272-.816.542-1.631h0.272V115.9h0.271q0.135-.543.271-1.087h0.271V114h0.271v-0.544h0.272q0.135-.815.271-1.63h0.271v-0.544h0.271v-0.815h0.271v-0.815h0.271v-0.815h0.272v-0.816h0.271v-0.815H167.7v-0.815h0.271q0.137-.951.271-1.9h0.272V103.4h0.271q0.135-.951.271-1.9h0.271l0.543-.816-0.543.272V99.869c0.682-.746.216-1.608,0.543-2.717h0.271V95.521c1.023-3.49,1.083-8.053,1.085-12.5,0-1.926.184-4.5-.272-5.978V74.053c-0.517-1.761-.538-4.255-1.084-5.978v-1.63H169.6V65.086h-0.271V64h-0.271q-0.135-1.223-.271-2.446h0.271V61.281l-0.542-.272-0.543-2.446H167.7V57.749h-0.271V56.934h-0.271q-0.136-1.087-.272-2.174h-0.271V54.216h-0.271V53.4h-0.271V52.586H165.8V51.77h-0.271V50.955h-0.272q-0.135-.679-0.271-1.359h-0.271V49.053h-0.271q-0.137-.815-0.271-1.63H163.9q-0.135-.543-0.271-1.087h-0.271V45.52H163.09q-0.137-.543-0.271-1.087h-0.272V43.89h-0.271V43.075h-0.271V42.531h-0.271V41.988h-0.271V41.444h-0.272V40.9H160.92V40.357h-0.271V39.814h-0.271q-0.136-.543-0.271-1.087h-0.272V38.183h-0.271V37.64h-0.271V37.1h-0.271V36.553h-0.271V36.009h-0.272V35.466l-0.542-.272V34.651h-0.271V34.107H157.4V33.564h-0.271V33.02l-0.543-.272q0.137-.272.271-0.543H156.31c-0.5-.45-0.452-1.29-0.814-1.9l-0.542-.272V29.216h-0.542a5.118,5.118,0,0,0-.814-1.9l-0.542-.272V26.5l-0.543-.272q-0.135-.543-0.271-1.087l-0.814-.543q-0.27-.815-0.542-1.631h0.542v0.272A2.473,2.473,0,0,1,152.784,24.868ZM15.832,51.5l-0.271.543c0.02-.011.786-0.431,0.542-0.543H15.832ZM7.967,100.413a14.076,14.076,0,0,0,1.9,3.8v0.544h0.271V105.3h0.271v0.544h0.271v0.543H10.95v0.543h0.271v0.544l0.542,0.272v0.815l0.542,0.272,0.271,1.087L13.12,110.2l0.542,1.631h0.271l0.271,0.815,0.542,0.272L15.018,114h0.271l0.271,0.815,0.542,0.272v0.543l0.814,0.544v0.543l0.542,0.272v0.544H17.73L18,118.348l0.542,0.271v0.544l1.085,0.815v0.544l1.356,1.087v0.543l1.085,0.815v0.544H22.34a3.061,3.061,0,0,1,1.085,1.9c1.3,0.333,2.879,2.613,3.8,3.533a55.931,55.931,0,0,0,7.051,5.978l1.085,1.359H35.9l0.271,0.543h0.542l0.542,0.816H37.8l0.271,0.543h0.542v0.272L39.426,139v0.544c0.27,0.273.271-.272,0.271-0.272,0.443-.177.458,0.519,0.542,0.815a2.31,2.31,0,0,1,1.356.272v0.272h0.814l0.271,0.543h0.542v0.272l1.085,0.272,0.542,0.815,1.627,0.544v0.271h0.542v0.272h0.542v0.272H48.1v0.271l1.627,0.544v0.272h0.814v0.271h0.542v0.272H51.9l0.542,1.087,2.712,0.272v0.272H55.7l0.271,0.543,1.9,0.272v0.272H58.68v0.271h0.814v0.272h1.085v0.272h0.542v0.272h1.356V149.6h0.814v0.272h1.356v0.272H65.46v0.272h1.356v0.271h1.356v0.272h2.169c1.612,0.483,4.063.591,5.7,1.087h3.526v0.272h9.492v-0.272h1.085a53.555,53.555,0,0,0,15.187-2.174l2.712-.272v-0.271h1.084v-0.272l1.9-.272v-0.272h0.813V148.24h0.814v-0.272h0.813V147.7l1.628-.272v-0.271h0.542v-0.272l1.627-.272v-0.272l1.085-.271v-0.272h0.813v-0.272H119.7V145.25h0.542v-0.271h0.543v-0.272h0.542v-0.272h0.542v-0.272h0.543v-0.271h0.542V143.62H123.5v-0.272h0.542v-0.271h0.542v-0.272h0.543c0.09-.181.18-0.363,0.271-0.544h1.356l0.271-.543,1.085-.272v-0.272c0.777-.752.358-0.975,1.9-1.087a0.98,0.98,0,0,1,.543-0.815V139h0.542q0.272-.406.542-0.815h0.543q0.27-.408.542-0.815h0.542l0.272-.544a9.711,9.711,0,0,0,1.084-.815h0.814a1.271,1.271,0,0,1,1.085-1.359c0.309-.309,0-0.108.542-0.271a1.535,1.535,0,0,1,1.356-1.359,0.947,0.947,0,0,1,.543-0.815v-0.272H139.5q0.406-.543.814-1.087h0.271c0.09-.272.181-0.544,0.271-0.815h0.542v-0.544l1.085-.815V128.4a0.4,0.4,0,0,1,.542.272h0.272v-1.087l0.542-.272a6.723,6.723,0,0,0,1.085-1.63h0.813a5.282,5.282,0,0,1,1.628-2.989l0.542-.272q0.135-.543.271-1.087l0.543-.272v-0.543l0.542-.272v-0.544h0.271c0.09-.271.181-0.543,0.271-0.815h0.814q-0.137-.272-0.271-0.543h0.271a7.4,7.4,0,0,1,.813-1.9l0.543-.272V115.63h0.271v-0.543h0.271v-0.544h0.271V114h0.272v-0.544l0.542-.271v-0.816l0.542-.271,0.543-1.631h0.271v-0.543h0.271V109.38H155.5v-0.543h0.272v-0.544h0.271v-0.815l0.542-.272v-0.815h0.271q0.137-.543.272-1.087H157.4v-0.815h0.271q0.135-.68.271-1.359h0.271q0.137-.543.271-1.087h0.272q0.135-.815.271-1.63h0.271V99.869h0.271V98.782h0.271V98.239h0.272q0.135-.815.271-1.63h0.271V95.793h0.271V94.978h0.271V94.434h0.272q0.135-.951.271-1.9h0.271V91.173h0.271V90.358h0.271V89.271h0.272V88.184h0.271V87.641h0.271V86.01a52.586,52.586,0,0,0,1.356-5.435h0.271v2.446c-0.737.909-.136,4.056-0.542,5.435q-1.084,6.114-2.17,12.228h-0.271q-0.135,1.088-.271,2.174h-0.271l-0.543,2.99h-0.271v0.815h-0.271v0.815h-0.271q-0.137.815-.272,1.63h-0.271v0.544h-0.271v1.087h-0.271q-0.136.543-.271,1.087h-0.272v1.087h-0.271q-0.135.68-.271,1.359h-0.271v0.543H157.4v0.815h-0.271v0.544h-0.272q-0.135.543-.271,1.087H156.31V117.8h-0.271v0.544h-0.271v0.543H155.5v0.544h-0.271v0.543h-0.271q-0.135.544-.271,1.087h-0.271q-0.137.68-.272,1.359l-0.542.272v0.543h-0.271v0.544h-0.271v0.543l-0.543.272v0.543l-0.542.272v0.544l-0.543.271q-0.135.544-.271,1.087l-0.542.272v0.544l-0.814.543q-0.135.543-.271,1.087l-1.085.815v0.544l-1.084.815v0.543l-0.543.272v0.544l-2.169,1.9v0.543l-2.441,2.174-4.068,4.348H137.6l-1.085,1.359H135.97l-1.627,1.9H133.8c-0.091.181-.181,0.363-0.271,0.544h-0.543l-0.271.543-0.813.272-0.543.815h-0.542c-0.091.181-.181,0.363-0.271,0.544l-0.814.271v0.272h-0.542c-0.091.181-.181,0.362-0.272,0.544h-0.542l-0.271.543h-0.543l-0.271.544H126.75q-0.136.272-.271,0.543l-1.085.272V151.5l-0.814.271c-0.09.181-.18,0.363-0.271,0.544l-1.085.272q-0.135.272-.271,0.543l-1.356.272-0.271.543h-0.814c-0.09.181-.18,0.363-0.271,0.544h-0.813l-0.272.543h-0.813v0.272H117.8v0.272l-0.542-.272-0.271.543-1.085.272v0.272h-1.085q-0.27.408-.542,0.815h-0.814v0.272h-0.542v0.272l-1.356.271v0.272l-2.712.544v0.271l-1.085.272v0.272h-1.084v0.272h-0.814V160.2h-1.356v0.272H103.97v0.272h-1.628v0.272h-0.813v0.271H99.9a41.412,41.412,0,0,1-12.2,1.631H83.9a0.715,0.715,0,0,1-.814.272v-0.272H76.579v-0.272h-1.9V162.37H72.511V162.1H71.426v-0.272l-4.882-.544v-0.271H65.731V160.74l-2.441-.272V160.2l-2.712-.543v-0.272H59.765v-0.272H58.952v-0.271H58.138v-0.272l-1.627-.272v-0.272l-1.356-.271v-0.272H54.612v-0.272l-1.627-.272v-0.271l-1.085-.272V156.12l-3.254-1.087-0.271-.543H47.561v-0.272H47.019v-0.272H46.477v-0.271H45.934V153.4H45.392v-0.272H44.849v-0.272H44.307v-0.271H43.765v-0.272H43.222v-0.272H42.68v-0.272H42.138l-0.271-.543-1.085-.272-0.271-.543-1.085-.272-0.271-.544H38.612v-0.271H38.07l-0.271-.544H37.256v-0.272l-0.813-.271-0.271-.544H35.629l-0.271-.543-0.814-.272v-0.272l-1.085-.272-1.085-1.358H31.832l-0.542-.816H30.747l-1.627-1.9H28.578L27.493,140.9l-0.814-.272-1.9-2.174c-1.2-1.2-3.949-3.11-4.339-4.892H19.9l-0.271-.815-1.356-1.087v-1.087H17.459v-0.271a9.924,9.924,0,0,1-1.356-2.174l-0.814-.544v-0.543l-0.542-.272-0.271-.815H14.2l-0.271-1.087H13.662l-0.271-.816-0.542-.271L12.577,122.7l-0.542-.272-0.271-1.087c-0.253-.462-1.491-1.389-0.814-1.9H10.408a7.165,7.165,0,0,0-1.085-2.174v-0.544H9.052v-0.543H8.781v-0.815H8.51v-0.544H8.238L7.7,113.185H7.425v-0.816H7.154v-0.543H6.882L6.611,110.2H6.34v-0.543H6.069L5.8,108.021H5.526v-0.543H5.255v-1.087c-0.434-1.2-1.058-1.746-.542-3.261-0.383.015,0.107,0.206-.271,0.272-0.233.513-.271-0.544-0.271-0.544H3.9l-0.271-1.9H3.357V99.869H3.086V98.782H2.814V97.7H2.543V96.608H2.272L2,93.619H1.73V92.26H1.459v-1.9H1.187v-1.9H0.916V86.282H0.645V83.836H0.374V79.488S0.145,79.471.1,78.945v-1.9H0.374v1.9H0.645v0.543H0.916v1.087H1.187v1.087H1.459v1.087H1.73v0.815H2v1.087H2.272v0.815H2.543v0.815H2.814v1.087H3.086v1.087H3.357V89H3.628L3.9,90.63H4.17l0.271,1.63H4.713l0.271,1.63H5.255L5.526,95.25H5.8v0.544H6.069L6.882,98.51H7.154L7.425,99.6H7.7l-0.271.816H7.967ZM164.717,79.76c0.309,0.31.108,0,.271,0.543h-0.271V79.76ZM25.324,153.131l1.085,0.272v0.272C25.592,153.592,25.67,153.638,25.324,153.131Z"/>
</svg>
