<svg xmlns="http://www.w3.org/2000/svg" width="667" height="666" viewBox="0 0 667 666">
  <defs>
    <style>
      .cls-1 {
        fill: #9be425;
      }

      .cls-1, .cls-2 {
        fill-rule: evenodd;
      }

      .cls-2 {
        fill: #00249c;
      }
    </style>
  </defs>
  <path id="Shape_316_1" data-name="Shape 316 1" class="cls-1" d="M335.287-5.486h2.039v1.02C335.277-5.052,336.444-4.344,335.287-5.486ZM194.581,70v2.04h-2.039v2.04H190.5c-3.489,7.769-12.568,12.573-17.333,19.381V95.5l-2.04,1.02v2.04l-3.059,2.04v2.04l-3.058,2.04v2.041l-2.04,1.02q-0.509,2.04-1.019,4.08l-2.039,1.02-1.02,4.08-2.039,1.02-1.02,4.08-2.039,1.02V126.1l-2.039,1.02-1.02,4.08h-1.019l-1.02,4.08h-1.02v3.06l-2.039,1.02v3.061h-1.02v2.04H143.6l-1.02,6.12-2.039,1.02v3.06h-1.02v3.06H138.5v3.061h-1.02v3.06h-1.019v4.08h-1.02l-1.02,7.14h-1.019v3.06h-1.02q-0.51,4.59-1.019,9.181h-1.02v7.14c-2.664,9.241-4.069,20.985-4.078,32.642q0.508,18.87,1.019,37.742h1.02v7.141h1.019v4.08h1.02v8.16h1.02v3.06h1.019v5.1h1.02v4.08h1.019v4.08h1.02l1.02,7.14h1.019v3.061h1.02v3.06h1.019v3.06h1.02v3.06h1.02v3.06h1.019v2.04h1.02v3.061h1.019v2.04h1.02v2.04h1.02v2.04h1.019v3.06h1.02q1.02,3.06,2.039,6.12h1.02v2.04h1.019v2.041h1.02v2.04h1.02v2.04h1.019v2.04l2.039,1.02v2.04h1.02v2.04h1.02q0.508,2.04,1.019,4.08l2.039,1.02v2.041l2.04,1.02v2.04h1.019l1.02,3.06,2.039,1.02v2.04l3.059,2.04v2.04l2.039,1.02v2.04l2.039,1.021,2.04,3.06h1.019v2.04l3.059,2.04,1.02,3.06h2.039v2.04l17.333,16.321,3.059,4.08h2.039l3.059,4.081h2.039q1.53,2.038,3.059,4.08h2.039l4.079,5.1h2.039l1.02,2.04h2.039q0.51,1.02,1.019,2.04h2.04q0.508,1.02,1.019,2.04h2.039l1.02,2.04h2.039v1.021h2.039q0.51,1.018,1.02,2.04l6.118,2.04,1.019,2.04h3.059l1.02,2.04,4.078,1.02,1.02,2.04h3.059q0.509,1.02,1.019,2.04H262.9l1.02,2.04,4.078,1.02v1.02l4.079,1.021v1.02h4.078v1.02h2.039v1.02h3.059v1.02l5.1,1.02v1.02h2.039v1.02l3.059-1.02v1.02H294.5v1.02h3.059v1.02h4.078v1.02c4.369,1.657,12.489,2.293,15.294,5.1l-23.451-2.04v-1.02l-9.176-1.02V466.8h-6.118v-1.02l-9.176-1.02v-1.02h-3.059v-1.02H262.9V461.7h-3.059v-1.02h-5.1v-1.02l-4.078-1.02v-1.02H247.6V456.6h-3.059v-1.021h-3.059v-1.02h-3.059q-0.508-1.02-1.019-2.04l-6.118-1.02q-0.51-1.02-1.019-2.04h-3.059l-1.02-2.04H223.13V446.4l-4.078-1.02v-1.02l-4.079-1.02q-0.509-1.02-1.019-2.04H210.9l-2.039-3.06-4.079-1.021q-0.508-1.02-1.019-2.04h-2.039v-1.02h-2.04v-1.02h-3.058l-2.04-3.06-4.078-1.02-3.059-4.08h-2.039l-3.059-4.08h-2.039l-3.059-4.081h-2.039l-4.079-5.1h-2.039V410.7l-2.039-1.02v-2.04h-2.039V405.6l-5.1-3.06-1.02-3.061h-2.039v-1.02l-2.039-1.02V395.4H153.8q-1.02-1.53-2.039-3.06h-2.039c-1.128-1-.751-2.064-1.02-4.08H146.66v-1.02l-2.04-1.02v-2.04l-4.078-3.061-1.02-4.08-4.078-3.06-1.02-3.06-2.039-1.02v-2.04l-2.039-1.02q-1.02-3.06-2.039-6.121l-2.039-1.02-1.02-3.06h-1.02v-3.06l-2.039-1.02v-2.04l-2.039-1.02v-2.04h-1.02v-2.041h-1.019v-3.06h-1.02v-2.04l-2.039-1.02-1.02-5.1h-1.019v-2.04h-1.02q-1.02-3.06-2.039-6.121h-1.02v-4.08l-2.039-1.02v-4.08h-1.02q-0.508-2.04-1.019-4.08h-1.02v-4.08h-1.019V305.63H101.8l-1.02-7.14H99.758v-5.1h-1.02v-3.06h-1.02v-5.1H96.7v-4.08h-1.02v-5.1H94.66V264.828H93.64l-1.02-21.421H91.6V227.086h1.02V215.865h1.02v-9.18h1.02v-6.12h1.02V192.4H96.7v-3.06h1.02v-6.12h1.02v-2.04h1.02v-6.121h1.019v-2.04h1.02v-5.1l2.039-1.02,1.02-7.141h1.019V156.7h1.02v-3.06h1.02v-3.06l2.039-1.02v-2.04h1.019l1.02-6.121h1.02q0.508-2.038,1.019-4.08h1.02v-2.04h1.019v-3.06l2.04-1.02v-3.06h1.019V126.1h1.02v-2.04l2.039-1.021,1.02-4.08,3.059-2.04q1.019-3.06,2.039-6.12l2.039-1.02v-2.04q1.529-1.02,3.059-2.04,0.51-2.04,1.019-4.081l2.04-1.02v-2.04l2.039-1.02q0.51-1.53,1.019-3.06h1.02l1.02-3.06H143.6c0.888-3.5,2.108-2.626,3.059-6.12H148.7c1.026-3.936,2.987-3.2,4.078-7.14,2.984-.7,3.339-1.135,4.079-4.08H158.9v-2.04h2.039c0.7-2.985,1.135-3.34,4.079-4.08v-2.04l3.058-1.02,3.059-4.08h2.04l6.117-7.14h2.039l1.02-2.04h1.02l2.039-3.06h2.039l2.039-3.06h2.039l1.02-2.04,4.079-1.02,2.039-3.06,4.078-1.02,1.02-2.04,4.078-1.02,1.02-2.04,4.078-1.02,1.02-2.04,4.078-1.02v-1.02l6.118-2.04v-1.02h3.059V24.1h2.039l1.02-2.04,4.078-1.02v-1.02h3.059q0.51-1.02,1.019-2.04l6.118-1.02v-1.02h2.039v-1.02h3.059v-1.02h4.079q0.508-1.02,1.019-2.04l6.118-1.02V9.814h3.059V8.794l7.137-1.02V6.754h5.1V5.734h2.039V4.714l8.157-1.02V2.674l34.667-6.12,14.274-1.02v1.02L324.072-.386v1.02l-13.255,3.06v1.02h-3.059v1.02h-2.039v1.02H302.66v1.02H299.6v1.02h-3.059v1.02h-3.059v1.02l-5.1,1.02v1.02h-2.039v1.02h-3.059v1.02l-4.078,1.02v1.02H276.15l-1.02,2.04h-3.058v1.02h-3.059v1.02h-2.04v1.02h-2.039l-1.019,2.04-6.118,1.02-1.02,2.04h-2.039q-0.51,1.02-1.019,2.04l-6.118,2.04-1.02,2.04h-3.058l-1.02,2.04-6.118,2.04q-0.51,1.02-1.019,2.04l-3.059,1.02-2.039,3.06-4.079,1.02-2.039,3.06h-2.039l-1.02,2.04h-2.039l-2.039,3.06h-2.04l-3.058,4.08h-2.04l-3.058,4.08h-2.04q-0.508,1.02-1.019,2.04C201.3,65.18,198.09,69.02,194.581,70ZM242.5,91.419v2.04h-2.039c-2.348,4.594-7.98,12.923-13.255,14.281-0.267,7.648-5.148,9.609-8.157,14.28v2.041h-1.02v2.04l-2.039,1.02q-1.02,3.06-2.039,6.12l-2.039,1.02-2.04,6.12h-1.019v2.041h-1.02q-1.019,3.059-2.039,6.12h-1.02v3.06h-1.019v2.04h-1.02v3.06h-1.019l-1.02,4.081h-1.02v3.06H198.66v3.06h-1.02v3.06h-1.019v3.06H195.6v4.08h-1.02v3.061h-1.019v5.1h-1.02v3.06h-1.02v5.1H190.5v5.1h-1.02v5.1h-1.019v8.16h-1.02v9.181h-1.02v13.26c0,10.225-1.473,24.223,1.02,32.642q1.02,10.71,2.039,21.421h1.02v3.061h1.019v5.1h1.02l1.02,9.18h1.019v3.061h1.02v3.06h1.02v4.08h1.019v2.04h1.02q0.51,3.06,1.019,6.12h1.02v2.04h1.02q0.508,3.06,1.019,6.121h1.02v2.04h1.019v3.06h1.02l1.02,4.08h1.019v2.04h1.02q0.51,2.55,1.019,5.1l2.04,1.02v3.06h1.019v2.04h1.02v2.04l2.039,1.02v2.04l2.039,1.02v2.04q1.02,0.51,2.04,1.02v2.041l2.039,1.02v2.04l2.039,1.02v2.04h1.02q0.508,1.53,1.019,3.06H225.17q-4.588-5.1-9.177-10.2l-2.039-1.021v-2.04l-4.079-3.06q-0.508-2.04-1.019-4.08l-3.059-2.04v-2.04l-2.039-1.02-1.02-3.06h-1.019l-1.02-4.081-3.059-2.04q-1.02-3.06-2.039-6.12l-2.039-1.02-1.02-3.06h-1.02v-3.06l-2.039-1.021q-0.51-2.038-1.019-4.08l-2.04-1.02v-3.06h-1.019l-1.02-4.08h-1.019v-3.06l-2.04-1.02V306.65h-1.019v-2.04h-1.02q-0.51-2.55-1.019-5.1h-1.02l-1.02-6.12h-1.019v-2.04l-2.039-1.02v-3.061h-1.02v-2.04h-1.02v-4.08h-1.019v-3.06h-1.02v-5.1h-1.02v-3.061h-1.019q-0.51-4.588-1.02-9.18h-1.019l-1.02-14.281h-1.02q-0.509-14.279-1.019-28.561h1.019V199.545h1.02l1.02-11.221,2.039-1.02v-7.14h1.019l1.02-9.181h1.02v-3.06h1.019v-4.08h1.02l1.02-6.121h1.019v-2.04h1.02V151.6l2.039-1.02q1.02-5.1,2.039-10.2l2.039-1.02V136.3h1.02v-2.04h1.02v-2.04l2.039-1.02v-3.06h1.019V126.1h1.02v-2.04l2.039-1.021v-3.06l2.039-1.02V115.9l3.059-2.04,1.02-4.08,2.039-1.02v-2.04l2.039-1.02v-2.041l3.059-2.04v-2.04l3.059-2.04v-3.06l5.1-4.08v-2.04h1.02c1.957-2.334,4.16-3.8,5.1-7.14h2.039c2.427-5.045,6.467-7.556,10.2-11.221l2.039-3.06h2.039l9.177-10.2h2.039l3.059-4.08h2.039l1.02-2.04H252.7l1.02-2.04,4.078-1.02,1.02-2.04,3.058-1.02,2.04-3.06h2.039q0.51-1.02,1.019-2.04l4.079-1.02,1.02-2.04h3.058l1.02-2.04,6.118-2.04q0.509-1.02,1.019-2.04h2.039V29.2h2.04v-1.02h3.058v-1.02h3.059v-1.02h3.059v-1.02h2.039l1.02-2.04h2.039v-1.02l6.118-1.02v-1.02h3.059v-1.02h2.039v-1.02h5.1v-1.02h3.059v-1.02h4.078v-1.02h2.039v-1.02h7.138v-1.02h3.058v-1.02h8.157v-1.02h13.255V9.814c4.9-1.376,24.987.016,28.549,1.02h13.255v1.02h7.137v1.02h3.059v1.02H413.8v1.02h7.137v1.02h4.079v1.02h3.059v1.02l8.157,1.02v1.02h5.1l2.039,3.06,13.255,3.06v1.02h2.039v1.02l5.1,1.02,1.02,2.04,6.117,1.02v1.02h2.039V34.3h2.04q0.508,1.02,1.019,2.04l9.177,3.06,1.019,2.04h2.04v1.02h2.039v1.02h2.039V44.5h2.039l1.02,2.04h2.039l1.02,2.04h2.039q0.51,1.02,1.019,2.04h2.04q0.509,1.02,1.019,2.04h2.039l1.02,2.04h2.039l1.02,2.04H512.7l1.02,2.04h2.039l1.02,2.04,4.078,1.02,1.02,2.04,3.058,1.02v1.02H522.9c-2.321-2.606-3.812-1.57-7.137-3.06v-1.02l-4.078-1.02V59.8l-9.177-3.06v-1.02h-3.059V54.7l-4.078-1.02v-1.02h-3.059v-1.02h-2.039v-1.02h-2.039l-1.02-2.04H484.15l-1.02-2.04h-4.078v-1.02h-3.059V44.5h-4.078l-1.02-2.04h-4.078v-1.02h-2.039v-1.02h-5.1V39.4H455.6v-1.02h-6.118v-1.02h-3.058v-1.02h-4.079v-1.02h-7.137V34.3h-8.157v-1.02H418.9v-1.02H406.66v-1.02H390.346v1.02H368.934v1.02L356.7,34.3v1.02h-4.078v1.02h-7.138v1.02h-2.039v1.02h-6.118V39.4l-7.137,1.02v1.02H327.13v1.02l-10.2,2.04v1.02H314.9v1.02h-3.059q-0.51,1.02-1.019,2.04h-4.079q-0.51,1.02-1.019,2.04H301.64q-0.51,1.02-1.019,2.04h-4.079v1.02H294.5V54.7h-2.039l-1.02,2.04-4.078,1.02-1.02,2.04-6.118,2.04v1.02l-3.058,1.02-1.02,2.04-4.078,1.02-1.02,2.04h-2.039l-4.079,5.1H262.9l-1.02,2.04h-2.039l-3.059,4.08h-2.039q-0.51,1.02-1.019,2.04C251.041,84.772,246.06,90.42,242.5,91.419Zm273.255,0v2.04c4.243,0.15,4.814,1.284,8.157,2.04v2.04c4.179,0.806,19.419,11.795,20.392,15.3,1.823,0.349,4.117.866,5.1,2.04l1.02,3.06c2.363,2.009,1.932-1.118,3.058,3.06h2.04c0.7,2.986,1.135,3.34,4.078,4.081v2.04c1.308,1.046,1.186,2.37,2.039,3.06l3.059,1.02v2.04l5.1,4.08v2.04l2.039,1.02v2.041l2.04,1.02v2.04l3.058,2.04,4.079,11.22,3.059,1.02q0.51,1.53,1.019,3.061h1.02v2.04h1.02v4.08l2.039,1.02V172h1.019l1.02,4.08h1.02q0.508,3.06,1.019,6.121l2.039,1.02v4.08h1.02l1.02,7.14h1.019v3.06h1.02v3.061h1.019v3.06h1.02l1.02,11.22c1.554,5.163,3.022,9.258,3.059,16.321,0.038,7.576,1.126,12.743,0,19.381-0.652,3.838.971,8.878-1.02,11.221-0.124-6.637-2.565-13.877-4.079-19.381l1.02-6.12h-1.02q-0.508-2.04-1.019-4.081h-1.02v-4.08h-1.019v-4.08h-1.02v-2.04h-1.02v-3.06h-1.019l-1.02-6.121h-1.019v-2.04h-1.02v-3.06l-2.039-1.02-1.02-6.12-2.039-1.02V197.5h-1.02q-0.509-2.038-1.019-4.08h-1.02q-0.51-3.06-1.019-6.12l-3.059-2.04q-1.02-3.06-2.04-6.12h-1.019l-1.02-3.061-2.039-1.02-1.02-4.08-2.039-1.02v-2.04l-4.078-3.06q-0.51-2.04-1.02-4.08l-4.078-3.061c-1.945-3.129,1.83-2.635-3.059-4.08V151.6c-3.164-1.818-2.869-4.415-5.1-6.12h-2.039l-1.02-2.04h-1.02V141.4h-2.039v-2.04a48.1,48.1,0,0,1-6.117-4.08l-2.04-3.06-3.058-1.02-4.079-5.1h-2.039l-1.02-2.04-4.078-1.021q-1.02-1.529-2.039-3.06h-2.04q-0.509-1.02-1.019-2.04h-2.039l-1.02-2.04h-2.039v-1.02H511.68v-1.02h-2.04v-1.02H507.6l-2.039-3.06h-4.079v-1.02h-2.039v-1.02l-6.117-2.04v-1.021h-2.04v-1.02h-3.058v-1.02h-2.04v-1.02l-21.411-5.1-1.02-2.04H455.6v-1.02h-9.176v-1.02h-4.079v-1.02h-25.49c-14.869,0-28.967,1.136-39.765,5.1h-5.1v1.02h-6.117v1.02h-2.04v1.02h-4.078v1.02H356.7v1.02h-4.078v1.02l-6.118,2.04V105.7h-5.1v1.02h-2.039v1.02h-2.04q-0.509,1.02-1.019,2.04h-3.059v1.02l-4.078,1.02v1.02l-4.079,1.02q-0.51,1.02-1.019,2.04l-4.079,1.02q-0.51,1.02-1.019,2.04l-4.079,1.02-1.02,2.04-6.117,2.041-1.02,2.04H304.7l-4.078,5.1h-2.04l-5.1,6.12h-2.039c-2.619,2.089.116,3.6-5.1,5.1-0.83,3.4-4.908,6.827-7.137,9.18l-2.039,1.02v2.04h-1.02l-1.02,2.04h-2.039q-0.51,1.53-1.019,3.06h-1.02V161.8l-2.039,1.02-1.02,4.08-2.039,1.02a12.69,12.69,0,0,0-3.059,7.14h-2.039q-1.02,3.06-2.039,6.121H257.8v2.04l-2.039,1.02-1.02,4.08-2.039,1.02v4.08l-2.039,1.02-1.02,5.1-2.039,1.02v2.04h-1.02v4.08l-2.039,1.02v4.08l-2.039,1.02-1.02,6.121h-1.019v3.06h-1.02v2.04h-1.02v3.06h-1.019q-0.51,3.57-1.02,7.14h-1.019v3.061h-1.02v4.08h-1.02c-1.317,4.194.485,8.515-2.039,11.22v-8.16h1.02l-1.02-12.241h1.02v-6.12h1.019v-7.14h1.02v-5.1h1.02q0.508-4.589,1.019-9.18h1.02v-4.08h1.019V197.5h1.02v-3.06h1.02v-3.06h1.019v-3.06h1.02v-3.06h1.02V182.2l2.039-1.02v-2.04h1.019L247.6,172h1.02v-2.04l2.039-1.02q0.51-2.55,1.019-5.1l2.04-1.02q0.508-2.04,1.019-4.081l2.039-1.02,2.04-6.12,2.039-1.02v-2.04l3.059-2.04q0.51-2.04,1.019-4.08h1.02a8.6,8.6,0,0,0,2.039-4.081h2.039c0.785-3.434,2.211-4.89,4.079-7.14h1.019v-2.04l10.2-9.181,9.177-10.2h2.039l7.137-8.161,6.118-2.04,3.059-4.08h3.059l1.019-2.04h3.059l2.039-3.06,3.059-1.02v-1.02h4.079l2.039-3.06h3.059v-1.02h2.039q0.51-1.02,1.019-2.04l6.118-1.02,1.02-2.04H346.5v-1.02h2.039v-1.02h4.079v-1.02h2.039V75.1h4.078v-1.02H361.8v-1.02l7.137-1.02v-1.02h5.1V70h3.059v-1.02h6.118v-1.02l18.353-1.02v-1.02c5.265-1.474,28.689-.09,32.627,1.02h10.2l28.549,6.12v1.02h2.04V75.1l10.2,2.04v1.02h2.039v1.02h3.059V80.2l5.1,1.02v1.02h2.039v1.02h3.059v1.02H502.5V85.3h2.039l1.02,2.04H507.6C510.215,88.809,512.191,90.616,515.758,91.419Zm9.176-25.5h2.04v1.02C524.924,66.352,526.092,67.06,524.934,65.917Z"/>
  <path id="Shape_318_1" data-name="Shape 318 1" class="cls-2" d="M115.946,389.625h2.01l1,3.016h1v2.011l2.01,1.006v2.011h1l1,3.016,2.01,1V403.7l5.025,4.022v2.011l2.01,1v2.011c0.585,0.759,2.026.792,3.014,2.011a4.005,4.005,0,0,0-2.009,2.011h1a5.473,5.473,0,0,1,2.009-2.011v1.006l9.045,8.043,1,3.017h2.009v2.011c4.179,2.186,7.8,5.848,11.055,9.049l2.009,3.016,3.015,1.006,4.02,5.027h2.01q1.507,2.01,3.014,4.022h2.01l1,2.011h1l1,2.01h2.01l2.01,3.017h2.01l1,2.011,3.014,1v1.006h2.01l1,2.011h2.01l1,2.01h2.01l1,2.011h2.009l1,2.011,6.03,2.011,1,2.011h2.01v1.006h2.01v1h2.009v1h2.01l1.005,2.011h3.015l1,2.011h3.015l1,2.011H228.5v1.006h2.01v1l4.02,1.006v1h3.015v1h2.009v1.006l6.03,1v1.006H248.6v1h3.015v1.006h3.014v1h4.02V495.2h2.01v1l8.039,1.006v1h5.025v1h3.015v1.006h7.034v1h3.015v1.006h7.034v1h8.04v1.006H326.98c17.1,0.006,33.316-.088,46.226-4.022h6.03v-1.006h4.019v-1h6.03v-1l7.034-1.006v-1h3.015v-1.006h4.02v-1h5.024v-1.006h2.01v-1l9.045-2.011v-1.006h2.009v-1l9.045-2.011v-1l5.024-1.006v-1h2.01v-1.006l9.044-2.011,1-2.011h2.01v-1l4.02-1v-1.006l9.044-3.016v-1.006h2.01v-1h2.01V468.05h2.01v-1h2.01v-1.006h2.009v-1l4.02-1,1-2.011h2.01v-1.006h2.01v-1h2.01V459h2.009v-1h2.01l1-2.011,4.02-1.006,1.005-2.01h2.01v-1.006c1.482-1,2.488-.806,5.024-1v1h-1v1.006l-3.014,1v2.011l-8.04,7.038-1,2.011-3.015,1-7.034,8.044h-2.01l-3.015,4.022h-2.009l-2.01,3.016h-2.01l-3.015,4.022h-2.01l-1,2.011h-2.01q-0.5,1-1,2.011h-2.01l-1,2.011H452.6l-1.005,2.011-6.03,2.011v1l-3.014,1.006-1,2.01h-3.015l-1,2.011-4.02,1.006v1l-4.019,1.006v1h-3.015l-1,2.011h-3.015v1.006h-2.01v1l-4.019,1v1.006l-5.025,1V513.3h-2.01v1h-4.019v1.006h-2.01v1l-10.049,2.011v1.006H391.3v1h-4.02v1.005h-4.02v1.006h-5.024v1h-4.02v1.006h-6.03v1h-3.014v1.006l-15.074,1c-11.885,3.43-27.638,3.012-43.212,3.017-6.873,0-15.847.5-21.1-1.006h-9.044v-1l-14.069-1.006v-1l-12.059-2.011V523.35l-8.04-1v-1.006h-4.019v-1.005h-3.015v-1h-3.015v-1.006H228.5v-1h-2.01v-1.006h-3.014v-1h-3.015V514.3h-2.01l-3.015-4.022-11.054-1-1-2.011-4.019-1v-1.006l-6.03-2.011v-1l-9.044-3.017-1-2.01h-2.01l-1-2.011h-2.01l-1-2.011-4.019-1.006-1-2.011h-2.01v-1H168.2l-2.01-3.016-4.02-1.006q-0.5-1-1-2.011h-2.01l-1-2.011h-2.01l-2.01-3.016h-2.01l-1-2.011h-2.01q-0.5-1.005-1-2.011l-3.015-1.005-2.01-3.017h-2.01l-2.01-3.016h-1l-1-2.011H135.04L129.01,458H127L115.946,445.93l-5.025-4.021,1-3.017h-1c-1.145,1.145,0,.4-2.009,1.006v-2.011l-6.03-5.028v-2.01l-2.01-1.006c-2.144-2.341-5.257-6.526-6.029-10.054h-2.01l-1-3.017h-1l-1-3.016-2.01-1.006v-2.011l-2.01-1-1-4.022-2.01-1V402.7l-2.01-1.006v-3.016l-3.015-2.011v-2.011h-1v-2.011h-1v-3.016l-2.01-1.006-1-4.021-2.01-1.006v-2.011h-1V379.57h-1v-3.016h-1l-1-4.022h-1v-2.011h-1l-1-5.027H62.685v-3.016h-1v-2.011h-1V357.45h-1v-2.011H58.665l-1-6.032h-1c-1.714-4.225,1.092-5.813-2.01-7.038-0.551-5.023-2.692-9.858-4.02-14.077l-1.005-9.049h-1v-5.027h-1v-5.027h-1v-8.044h-1V293.1H44.6V278.019h-1q0.5-17.091,1-34.185H45.6V233.779h1v-6.032h1v-7.038h1v-5.028h1v-4.022h1.005l1-9.049h1v-3.016h1v-3.016l2.01-1.006v-1h-1l1-6.033h1l1-6.033h1V180.49H59.67v-4.021h1v-2.011h1v-3.017h1V169.43H63.69v-3.016h1V164.4h1l1-5.027h1l2.01-6.033h1v-2.011h1v-2.011h1V147.31h1V145.3h1v-2.01h1v-2.011h1v-2.011l2.01-1.006V136.25l2.01-1,2.01-6.033L85.8,127.2l1-4.022h1l1-3.016,2.01-1v-2.011l3.015-2.011v-2.011l3.015-2.011,1-3.016h2.01c0.991-5.107,4.991-8.844,8.04-12.066l2.009-1.005V93.016h1.005l1-2.011h2.01c1.018-3.983,12.3-14.344,16.079-16.087v2.011c-3.873,2.462-5.465,7.243-8.039,11.06l-2.01,1.005V91l-2.01,1.005-1.005,4.022-2.01,1.005-1,4.021h-1.005l-1,3.017-2.01,1.005v2.011l-2.009,1.006v2.011h-1v2.01h-1v2.011h-1.005v2.011l-2.01,1.006-1.005,5.027-2.01,1-1,4.022h-1v2.011h-1l-2.01,6.033h-1v3.016h-1l-1,4.022h-1v2.011h-1l-1,5.027h-1v3.017h-1v2.011h-1v3.016h-1v2.011h-1l-1,6.033h-1v3.016l-2.01,1-1,9.049h-1V182.5h-1v3.017h-1l-1,9.049h-1v5.027h-1l-1,13.071c-3.078,10.958-3.485,35.951-1,48.262h-1v1h1v7.038h1v8.044c1.4,4.75,2.487,11.518,4.02,16.087l1,8.044h1l2.01,10.054h1v3.017h1v3.016h1l1,6.033h1v2.011h1q0.5,3.015,1,6.033h1v2.01h1v3.017h1v2.011h1v3.016h1l1,4.022h1V348.4l2.01,1.006v2.011h1v2.011h1v3.016l2.01,1,7.035,16.088,2.01,1q1,3.016,2.009,6.033l3.015,2.011V384.6h1ZM566.151,92.01h2.01v1.005l5.025,4.022,1,3.016H576.2v2.011l7.035,6.033v2.011h1c1.382,1.49.512,1.316,3.015,2.01l-1,3.017,2.009-1.006v1.006l2.01,1.005v2.011l5.025,4.022v2.011l3.015,2.011v2.011q1.506,1.005,3.014,2.011v2.011l4.02,3.016,1,5.027h2.01l1.005,3.017h1l1,3.016,2.009,1,1,4.022,2.01,1.006,1,4.021,2.01,1.006,1,4.022,2.01,1V164.4h1v2.011h1v2.011h1v2.011l2.009,1v2.011h1v2.011h1v2.011h1v2.011h1V181.5h1v2.011h1v2.011h1l2.01,6.032h1l1,5.028h1v2.011h1v3.016h1v2.011h1v3.016h1v3.017h1v2.01h1l1,6.033h1V219.7h1q2.511,9.55,5.024,19.1h1v5.027h1.005v3.016h1v4.022c2.392,7.1,3.859,16.685,6.03,24.131v8.044h1l1,16.087h1q0.5,14.074,1,28.153v8.043c-0.25,1.4-1.066-.415-1,1.006h1c0.605,3.4-.489,7.212-1,9.049v16.087h-1v9.049h-1v8.044h-1V384.6h-1v5.027h-1v6.033h-1v4.021h-1v5.028h-1v5.027h-1v4.022h-1v3.016h-1.005V421.8h-1v3.017h-1v3.016h-1v3.017h-1v3.016H649.56v3.016h-1V439.9h-1l-2.01,9.049h-1v2.011h-1v3.016h-1l-1,4.022h-1v3.016h-1v2.011h-1v3.016h-1l-2.01,6.033h-1v2.011h-1V477.1l-2.01,1.006v2.011h-1v3.016l-2.01,1.006v2.011h-1v2.01h-1v2.011h-1v2.011h-1v2.011l-2.01,1.006-2.01,6.032-2.01,1.006-1,4.022h-1l-1,3.016-2.01,1q-0.5,2.012-1,4.022l-3.015,2.011v2.011l-2.01,1.006v2.01l-2.01,1.006v2.011l-3.015,2.011v2.011l-4.019,3.016v2.011l-2.01,1v2.011l-3.015,2.011v2.011l-3.015,2.011-1,3.016-6.029,5.028v2.011l-11.054,10.054c-2.358,2.589-.585,3.824-5.025,5.027V569.6l-3.015,1.006q-2.008,2.513-4.019,5.027h-2.01c-0.933,3.786-2.846,4.478-6.03,6.033v1c-1.617.639-3.782-1.238-4.019-1,2.9,5.04-1.177,4.975-4.02,7.038l-3.015,4.022h-2.01L536,596.749h-2.009l-2.01,3.016h-2.01l-1,2.011h-2.01l-2.01,3.016h-2.01q-0.5,1-1,2.011h-2.01l-1,2.011h-2.01c-2.49,1.443-3.477,3.282-7.034,4.022v2.011l-3.015,1v1.006h-3.015l-2.01,3.016h-2.01v1h-2.01v1.006H494.8l-2.01,3.016-4.02,1.006v1h-2.01v1.006h-2.01v1h-2.009v1.006h-2.01v1h-3.015l-1,2.011H474.7v1h-2.01v1.006h-2.009v1l-5.025,1.006v1l-5.025,1.006v1h-2.01v1.006c-1.289.6,0.239-.865-1-1.006h-1v2.011a26.453,26.453,0,0,0-10.05,3.016v1.006h-3.014v1h-3.015v1.006h-3.015v1l-10.049,2.011v1.006h-3.015v1h-3.015v1l-8.039,1.006v1l-8.039,1.006v1l-46.227,7.038h-21.1v-1h-1v1h-2.01v1.006L309.9,665.119c-9.817-.025-23.275-1.576-31.153-4.021h-6.029v-1.006h-6.03v-1H261.66v-1.006h-4.02v-1l-13.064-2.011v-1.006l-7.034-1v-1h-3.015v-1.006h-3.015v-1l-7.034-1.006v-1h-2.01v-1.006h-4.02v-1l-5.025-1.006v-1h-2.009V643l-6.03-1v-1h-2.01v-1.006h-3.015v-1l-6.029-2.011v-1.006h-2.01v-1h-3.015V633.95H187.3v-1h-2.009v-1.006h-2.01v-1h-2.01v-1h-2.01v-1.006h-2.01v-1h-2.01v-1.006h-2.009v-1h-2.01l-1.005-2.011H168.2V622.89h-2.01v-1h-2.01v-1.006h-2.01q-0.5-1.005-1-2.01h-2.01v-1.006h-2.01v-1.005l-3.015-1.006-1.005-2.011-4.02-1q-1-1.509-2.009-3.017h-2.01l-1-2.01-4.02-1.006-1-2.011h-2.01l-2.009-3.016h-2.01l-2.01-3.017h-2.01L127,595.743h-2.01q-1.507-2.01-3.014-4.022h-2.01l-3.015-4.022h-1v-2.01l-2.01,1c-2.26-2.059-2.4-4.075-6.029-5.027v-2.011c-2.941-.688-3.291-1.119-4.02-4.022-3.573-.805-5.621-2.966-6.03-7.038h1v1l4.02,1.006,1,2.011h2.01l1,2.011h2.01v1h2.009l1,2.011h2.01v1h2.01v1.006h2.01v1h2.01v1.006l3.014,1,1,2.011,5.025,1.006,1,2.01,4.02,1.006v1l4.019,1.006v1h3.015v1.006h2.01v1h2.01v1.006h2.01v1l6.029,2.011v1l18.089,6.033,1,2.011,13.064,3.016v1.006H188.3v1h3.015v1.006h3.015v1h3.015v1.006l7.034,1v1.006l12.059,2.011v1l13.064,2.011,1,2.011s3.145-1.526,5.025-1.006V623.9h6.029v1l11.054,1.006v1h10.05v1.006h11.054c4.252,1.191,15.3-.457,19.093,1l1,2.011h1v-1h9.044L332,628.923v-1h10.05v-1.006H351.1v-1h7.034V624.9h6.03v-1h6.029V622.89c3.856-1.195,7.388-.5,10.05,0q0.5-1,1-2.011l12.06-2.01v-1.006h3.014v-1.005h3.015v-1.006l8.039-1v-1.006h2.01v-1l7.035-1.006c3.31-1.2,4.13-2.7,9.044-3.016a4,4,0,0,0,2.01,2.011l-2.01-3.016,16.079-6.033V600.77h2.01v-1h3.014v-1.006l6.03-2.01v-1.006h2.01v-1h2.01v-1.006h2.009v-1h3.015l1-2.011,6.03-2.011,1-2.011,4.019-1,1-2.011,3.015-1.006v-1l6.03-2.011q0.5-1,1-2.011h2.01l1-2.011h2.01l1-2.011,4.02-1q1.506-2.011,3.014-4.022h2.01l2.01-3.017h2.01l2.01-3.016h2.01q2.009-2.514,4.019-5.027c2.254-1.63,4.343-1.918,6.03-4.022l3.015,1v-1c-1.145-1.146-.4,0-1-2.011l6.029-5.027V545.47h2.01L535,537.427l6.029-5.028,2.01-3.016h2.01l-1-2.011,9.044-8.043v-2.011l2.01-1.006,2.01-3.016h1v-2.011c1.82-2.554,3.922-1.707,5.024-6.033h2.01a12.55,12.55,0,0,1,3.015-6.033h1.005v-2.01l3.015-2.011v-2.011c2.527-3.74,6.7-7.077,8.039-12.066h2.01c0.233-2.264.105-2.66,1-4.022h1v-2.01h1v-2.011l2.01-1.006v-2.011h1V468.05l2.01-1,2.01-6.033,2.01-1V458h1v-2.011h1v-2.011h1v-2.011h1v-2.011l2.01-1q0.5-2.514,1-5.028h1v-2.01h1V439.9h1v-2.011h1l2.01-6.033h1v-3.016h1.005l1-4.022h1V421.8h1v-2.01h1l1-6.033h1.005v-2.011h1v-3.016h1v-3.017h1V402.7h1v-3.017h1v-3.016h1v-3.016h1q0.5-3.519,1-7.038h1v-4.022h1q0.5-3.519,1-7.038h1l2.01-3.017-2.01,1.006v-4.022c2.526-2.762.8-5.949,2.01-10.055h1v-6.032c3.793-12.914,4.015-29.8,4.02-46.251,0-7.125.685-16.643-1-22.12V274c-1.916-6.516-2-15.746-4.02-22.12v-6.033h-1v-5.027h-1V236.8h-1q-0.5-4.524-1-9.049h1v-1.006l-2.009-1.005-2.01-9.049h-1V213.67h-1v-3.016h-1l-1-8.044h-1V200.6h-1v-3.016h-1v-3.016h-1.005V191.55h-1v-3.016h-1l-1-5.027h-1V181.5h-1l-1.005-6.033h-1l-1-4.022h-1v-3.016h-1l-1-4.022h-1v-2.011h-1v-3.016h-1v-2.011h-1v-2.011h-1v-2.011h-1v-2.011h-1v-2.011h-1V147.31h-1l-1-4.021h-1v-2.011h-1v-2.011h-1v-2.011h-1v-2.011h-1v-2.011h-1v-2.011l-2.01-1.005v-2.011h-1V126.2h-1v-2.011h-1v-2.011l-2.01-1.005,1-2.011h-2.01c-1.852-1.664-1.675-4.775-3.015-7.039l-2.009-1V108.1h-2.01a18.874,18.874,0,0,0-3.015-7.039l-2.01-1V98.043l-2.01-1.005-1-4.022L561.127,91l-2.01-6.033h2.01v1.005A9.161,9.161,0,0,1,566.151,92.01ZM58.665,190.545l-1,2.011c0.074-.042,2.912-1.595,2.01-2.011H58.665ZM29.523,371.527c1.086,5.438,4.729,9.767,7.035,14.076v2.011h1v2.011h1v2.011h1v2.011h1v2.011h1.005v2.011l2.01,1v3.016L45.6,402.7l1,4.022,2.01,1,2.01,6.033h1l1,3.016,2.01,1.006,1,4.021h1l1,3.017,2.01,1.005v2.011l3.015,2.011v2.011l2.01,1v2.011h1l1,3.017,2.01,1V440.9l4.02,3.016v2.011l5.025,4.022v2.011l4.02,3.016v2.011h1c1.995,2.393,3.417,3.068,4.02,7.039,4.8,1.232,10.668,9.667,14.069,13.07A206.866,206.866,0,0,0,127,499.219l4.02,5.028h2.01l1,2.011h2.009l2.01,3.016h2.01l1,2.011h2.01v1l3.015,2.011v2.011c1,1.009,1-1,1-1,1.642-.654,1.7,1.919,2.009,3.016,2.556,0.078,3.546.094,5.025,1.006v1h3.015l1,2.011h2.01v1l4.019,1.006,2.01,3.016,6.03,2.011v1.006h2.009v1h2.01v1h2.01v1.006l6.03,2.011v1H187.3v1.006h2.01v1h3.015l2.01,4.022,10.049,1v1.006h2.01l1,2.011,7.034,1v1.006h3.015v1h3.015V550.5h4.02v1h2.009v1.006h5.025v1h3.015v1h5.024v1.006h3.015v1h5.025v1.006h5.024v1.005h8.04c5.974,1.787,15.054,2.186,21.1,4.022h13.064v1.006h35.172v-1.006h4.02c20.842-.44,40.137-2.787,56.276-8.044l10.049-1v-1h4.02V551.5l7.034-1v-1.006h3.015v-1h3.015v-1.006h3.014v-1l6.03-1.006v-1h2.01v-1.006l6.029-1v-1l4.02-1.006v-1h3.015v-1.006h2.01v-1h2.009v-1.006h2.01v-1h2.01V534.41h2.01v-1h2.01V532.4h2.01v-1h2.01v-1h2.009v-1.006h2.01v-1h2.01l1-2.011h5.025l1.005-2.011,4.019-1.006v-1c2.879-2.785,1.326-3.61,7.035-4.022,0.7-2.5.518-1.634,2.01-3.016V514.3h2.009l2.01-3.016h2.01l2.01-3.016h2.01l1-2.011c1.263-1.166,2.918-1.68,4.019-3.017h3.015c0.563-3.153.979-4.212,4.02-5.027,1.145-1.145,0-.4,2.01-1,0.708-3.105,1.958-4.277,5.024-5.028,0.636-2.529.543-1.642,2.01-3.016v-1.006h2.01l3.015-4.021h1l1-3.017h2.009V479.11l4.02-3.016v-1c1.395-.733,2.01,1,2.01,1h1v-4.022l2.01-1a24.915,24.915,0,0,0,4.019-6.033h3.015c0.46-4.73,3.5-8.324,6.03-11.06l2.01-1q0.5-2.012,1-4.022l2.01-1.006V445.93l2.01-1v-2.011h1l1-3.016h3.015l-1-2.011h1c0.979-2.839,1.459-4.676,3.015-7.038q1-.5,2.009-1.006v-2.011h1v-2.011h1V423.81h1V421.8h1v-2.01l2.01-1.006v-3.016l2.01-1.006,2.01-6.032h1v-2.011h1v-2.011h1V402.7h1v-2.011h1v-3.016l2.01-1.006v-3.016h1l1-4.022h1v-3.016h1l1-5.028h1l1-4.022h1l1-6.032h1v-2.011h1v-4.022h1v-2.011h1l1-6.033h1v-3.016h1v-3.016h1v-2.011h1l1-7.038h1v-5.028h1v-3.016h1V330.3h1v-4.022h1V324.27h1v-6.032a195.076,195.076,0,0,0,5.025-20.109h1v9.049c-2.733,3.362-.5,15.007-2.01,20.109q-4.02,22.62-8.04,45.245h-1l-1,8.044h-1l-2.01,11.06h-1v3.016h-1v3.017h-1l-1,6.032h-1v2.011h-1v4.022h-1l-1,4.022h-1v4.022h-1l-1,5.027h-1v2.011h-1v3.016h-1v2.011h-1l-1,4.022h-1v2.011h-1v2.011h-1V439.9h-1v2.011h-1v2.01h-1l-1,4.022h-1l-1,5.028-2.01,1v2.011h-1.005V458h-1v2.011l-2.01,1v2.011l-2.01,1.006v2.01q-1,.5-2.009,1.006l-1,4.022-2.01,1v2.011l-3.015,2.011-1,4.022-4.02,3.016v2.011l-4.019,3.016v2.011l-2.01,1.006v2.011L536,500.225v2.011l-9.044,8.043-15.074,16.088h-2.009l-4.02,5.027h-2.01l-6.03,7.038h-2.009l-1,2.011h-2.01l-1,2.011-3.015,1-2.01,3.017h-2.01q-0.5,1-1,2.011l-3.015,1V550.5h-2.01l-1,2.011h-2.01l-1.005,2.01h-2.01l-1,2.011h-2.009l-1,2.011-4.02,1.006v1l-3.015,1.006-1,2.011-4.019,1-1,2.011-5.025,1-1,2.011h-3.015l-1,2.011h-3.014l-1,2.011h-3.015v1.006h-2.01v1l-2.01-1-1,2.01-4.019,1.006v1h-4.02l-2.01,3.017h-3.015v1h-2.009v1.006l-5.025,1v1.006l-10.049,2.01v1.006l-4.02,1v1.006h-4.02v1H392.3v1.006h-5.025v1h-2.01v1.006h-6.029v1h-3.015v1.006h-6.03c-13.03,4.011-28.016,6.026-45.221,6.032H310.9a2.649,2.649,0,0,1-3.015,1.006v-1.006H283.768v-1h-7.034V600.77h-8.04v-1h-4.02v-1.006l-18.088-2.01v-1.006h-3.015v-1l-9.044-1.006v-1l-10.049-2.011V589.71h-3.015v-1h-3.015V587.7h-3.015v-1l-6.029-1v-1.006l-5.025-1v-1.006h-2.01v-1l-6.029-1.006v-1l-4.02-1.006v-1l-12.059-4.022-1-2.011h-3.015v-1h-2.01V569.6h-2.009v-1h-2.01V567.59H168.2v-1h-2.01v-1.006h-2.01v-1h-2.01v-1h-2.009v-1.006h-2.01v-1h-2.01l-1-2.011-4.02-1.006-1-2.011-4.019-1-1-2.011h-2.01v-1h-2.01l-1-2.011h-2.01v-1.006l-3.014-1-1-2.011h-2.01l-1-2.011-3.015-1.006v-1l-4.02-1-4.019-5.028h-2.01l-2.01-3.016h-2.01l-6.029-7.038H105.9l-4.02-5.028-3.015-1.005-7.034-8.044c-4.448-4.45-14.633-11.5-16.079-18.1h-2.01l-1-3.016-5.025-4.022v-4.022H64.695v-1c-2.54-2.211-3.044-5.178-5.025-8.044l-3.015-2.011v-2.011l-2.01-1-1.005-3.017h-1l-1-4.021h-1L49.621,459l-2.01-1-1-4.022-2.01-1-1-4.022c-0.938-1.71-5.525-5.138-3.015-7.038h-2.01c-0.709-3.537-2.645-5.46-4.02-8.044v-2.011h-1v-2.011h-1v-3.016H31.533v-2.011h-1l-2.01-6.033h-1v-3.016h-1v-2.011h-1l-1-6.033h-1v-2.011H22.488l-1-6.033h-1v-2.01h-1v-4.022c-1.606-4.422-3.921-6.46-2.01-12.066-1.42.055,0.4,0.762-1,1.006-0.864,1.9-1-2.011-1-2.011h-1q-0.5-3.519-1.005-7.038h-1v-4.022h-1v-4.022h-1v-4.022h-1V357.45h-1l-1-11.06h-1v-5.027h-1v-7.038h-1v-7.038h-1v-8.044h-1v-9.049h-1V294.107s-0.848-.065-1-2.011v-7.038h1V292.1h1v2.011h1v4.022h1v4.021h1v4.022h1v3.017h1v4.021h1v3.017h1v3.016h1v4.022h1v4.022h1V329.3h1l1.005,6.032h1l1,6.033h1l1,6.033h1l1,5.027h1v2.011h1L25.5,364.489h1l1,4.021h1l-1,3.017h2.01Zm580.845-76.415c1.144,1.146.4,0,1,2.011h-1v-2.011ZM93.838,566.585l4.02,1V568.6C94.834,568.291,95.121,568.46,93.838,566.585Z"/>
</svg>
